<?xml version="1.0" encoding="UTF-8" standalone="no"?>
<!DOCTYPE svg PUBLIC "-//W3C//DTD SVG 1.1//EN"
 "http://www.w3.org/Graphics/SVG/1.1/DTD/svg11.dtd">
<!-- Generated by graphviz version 15.0.0 (20260523.1842)
 -->
<!-- Title: AlphaForgeAgentOrchestration Pages: 1 -->
<svg width="1864pt" height="621pt"
 viewBox="6.00 6.00 1858.00 615.00" xmlns="http://www.w3.org/2000/svg" xmlns:xlink="http://www.w3.org/1999/xlink">
<g id="graph0" class="graph" transform="scale(1 1) rotate(0) translate(25.92 595.32)">
<title>AlphaForgeAgentOrchestration</title>
<polygon fill="#071426" stroke="none" points="-20.16,20.16 -20.16,-589.56 1832.16,-589.56 1832.16,20.16 -20.16,20.16"/>
<text xml:space="preserve" text-anchor="middle" x="906" y="-538.4" font-family="Arial" font-size="30.00" fill="#f5fbff">AlphaForge — Agent Orchestration</text>
<text xml:space="preserve" text-anchor="middle" x="906" y="-502.4" font-family="Arial" font-size="30.00" fill="#f5fbff">NUS Summer Workshop</text>
<g id="clust1" class="cluster">
<title>cluster_design</title>
<path fill="#081b31" stroke="#244966" stroke-width="1.5" d="M20,-325.56C20,-325.56 1792,-325.56 1792,-325.56 1798,-325.56 1804,-331.56 1804,-337.56 1804,-337.56 1804,-469.4 1804,-469.4 1804,-475.4 1798,-481.4 1792,-481.4 1792,-481.4 20,-481.4 20,-481.4 14,-481.4 8,-475.4 8,-469.4 8,-469.4 8,-337.56 8,-337.56 8,-331.56 14,-325.56 20,-325.56"/>
<text xml:space="preserve" text-anchor="middle" x="906" y="-463" font-family="Arial" font-size="16.00" fill="#7bd8ff">DESIGN &amp; IMPLEMENTATION</text>
</g>
<g id="clust3" class="cluster">
<title>cluster_execution</title>
<path fill="#081b31" stroke="#244966" stroke-width="1.5" d="M39,-8C39,-8 1780,-8 1780,-8 1786,-8 1792,-14 1792,-20 1792,-20 1792,-151.84 1792,-151.84 1792,-157.84 1786,-163.84 1780,-163.84 1780,-163.84 39,-163.84 39,-163.84 33,-163.84 27,-157.84 27,-151.84 27,-151.84 27,-20 27,-20 27,-14 33,-8 39,-8"/>
<text xml:space="preserve" text-anchor="middle" x="909.5" y="-145.44" font-family="Arial" font-size="16.00" fill="#7bd8ff">SAFETY, EXECUTION &amp; DECISION</text>
</g>
<!-- N1 -->
<g id="node1" class="node">
<title>N1</title>
<path fill="#0b3048" stroke="#27c7f7" stroke-width="2" d="M197.86,-430.2C197.86,-430.2 44.14,-430.2 44.14,-430.2 38.14,-430.2 32.14,-424.2 32.14,-418.2 32.14,-418.2 32.14,-361.56 32.14,-361.56 32.14,-355.56 38.14,-349.56 44.14,-349.56 44.14,-349.56 197.86,-349.56 197.86,-349.56 203.86,-349.56 209.86,-355.56 209.86,-361.56 209.86,-361.56 209.86,-418.2 209.86,-418.2 209.86,-424.2 203.86,-430.2 197.86,-430.2"/>
<text xml:space="preserve" text-anchor="middle" x="121" y="-403.38" font-family="Arial" font-size="15.00" fill="#f5fbff">01</text>
<text xml:space="preserve" text-anchor="middle" x="121" y="-385.38" font-family="Arial" font-size="15.00" fill="#f5fbff">Normalized Evidence</text>
<text xml:space="preserve" text-anchor="middle" x="121" y="-367.38" font-family="Arial" font-size="15.00" fill="#f5fbff">Parent + four baselines</text>
</g>
<!-- N2 -->
<g id="node2" class="node">
<title>N2</title>
<path fill="#0b3048" stroke="#27c7f7" stroke-width="2" d="M394.88,-430.2C394.88,-430.2 249.12,-430.2 249.12,-430.2 243.12,-430.2 237.12,-424.2 237.12,-418.2 237.12,-418.2 237.12,-361.56 237.12,-361.56 237.12,-355.56 243.12,-349.56 249.12,-349.56 249.12,-349.56 394.88,-349.56 394.88,-349.56 400.88,-349.56 406.88,-355.56 406.88,-361.56 406.88,-361.56 406.88,-418.2 406.88,-418.2 406.88,-424.2 400.88,-430.2 394.88,-430.2"/>
<text xml:space="preserve" text-anchor="middle" x="322" y="-403.38" font-family="Arial" font-size="15.00" fill="#f5fbff">02</text>
<text xml:space="preserve" text-anchor="middle" x="322" y="-385.38" font-family="Arial" font-size="15.00" fill="#f5fbff">Evidence Summarizer</text>
<text xml:space="preserve" text-anchor="middle" x="322" y="-367.38" font-family="Arial" font-size="15.00" fill="#f5fbff">Metrics + run IDs</text>
</g>
<!-- N1&#45;&gt;N2 -->
<g id="edge1" class="edge">
<title>N1&#45;&gt;N2</title>
<path fill="none" stroke="#d9eeff" stroke-width="2" d="M210.62,-390C210.62,-390 225.31,-390 225.31,-390"/>
<polygon fill="#d9eeff" stroke="#d9eeff" stroke-width="2" points="225.31,-392.73 233.11,-390 225.31,-387.27 225.31,-392.73"/>
</g>
<!-- N8 -->
<g id="node8" class="node">
<title>N8</title>
<path fill="#30245c" stroke="#a98aff" stroke-width="2" d="M178.88,-112.64C178.88,-112.64 63.12,-112.64 63.12,-112.64 57.12,-112.64 51.12,-106.64 51.12,-100.64 51.12,-100.64 51.12,-44 51.12,-44 51.12,-38 57.12,-32 63.12,-32 63.12,-32 178.88,-32 178.88,-32 184.88,-32 190.88,-38 190.88,-44 190.88,-44 190.88,-100.64 190.88,-100.64 190.88,-106.64 184.88,-112.64 178.88,-112.64"/>
<text xml:space="preserve" text-anchor="middle" x="121" y="-85.82" font-family="Arial" font-size="15.00" fill="#f5fbff">08</text>
<text xml:space="preserve" text-anchor="middle" x="121" y="-67.82" font-family="Arial" font-size="15.00" fill="#f5fbff">Code Risk Agent</text>
<text xml:space="preserve" text-anchor="middle" x="121" y="-49.82" font-family="Arial" font-size="15.00" fill="#f5fbff">No Backtest Data</text>
</g>
<!-- N1&#45;&gt;N8 -->
<!-- N3 -->
<g id="node3" class="node">
<title>N3</title>
<path fill="#30245c" stroke="#a98aff" stroke-width="2" d="M615.3,-430.2C615.3,-430.2 448.7,-430.2 448.7,-430.2 442.7,-430.2 436.7,-424.2 436.7,-418.2 436.7,-418.2 436.7,-361.56 436.7,-361.56 436.7,-355.56 442.7,-349.56 448.7,-349.56 448.7,-349.56 615.3,-349.56 615.3,-349.56 621.3,-349.56 627.3,-355.56 627.3,-361.56 627.3,-361.56 627.3,-418.2 627.3,-418.2 627.3,-424.2 621.3,-430.2 615.3,-430.2"/>
<text xml:space="preserve" text-anchor="middle" x="532" y="-403.38" font-family="Arial" font-size="15.00" fill="#f5fbff">03</text>
<text xml:space="preserve" text-anchor="middle" x="532" y="-385.38" font-family="Arial" font-size="15.00" fill="#f5fbff">Strategy Designers</text>
<text xml:space="preserve" text-anchor="middle" x="532" y="-367.38" font-family="Arial" font-size="15.00" fill="#f5fbff">Traditional · ML · Hybrid</text>
</g>
<!-- N2&#45;&gt;N3 -->
<g id="edge2" class="edge">
<title>N2&#45;&gt;N3</title>
<path fill="none" stroke="#d9eeff" stroke-width="2" d="M407.72,-390C407.72,-390 425.11,-390 425.11,-390"/>
<polygon fill="#d9eeff" stroke="#d9eeff" stroke-width="2" points="425.11,-392.73 432.91,-390 425.11,-387.27 425.11,-392.73"/>
</g>
<!-- GATE -->
<g id="node9" class="node">
<title>GATE</title>
<path fill="#453316" stroke="#ffc857" stroke-width="2" d="M310.7,-97.79C310.7,-97.79 250.86,-76.37 250.86,-76.37 245.21,-74.34 245.21,-70.3 250.86,-68.27 250.86,-68.27 310.7,-46.85 310.7,-46.85 316.35,-44.82 327.65,-44.82 333.3,-46.85 333.3,-46.85 393.14,-68.27 393.14,-68.27 398.79,-70.3 398.79,-74.34 393.14,-76.37 393.14,-76.37 333.3,-97.79 333.3,-97.79 327.65,-99.82 316.35,-99.82 310.7,-97.79"/>
<text xml:space="preserve" text-anchor="middle" x="322" y="-75.62" font-family="Arial" font-size="11.00" fill="#fff2c6">PRE&#45;BACKTEST</text>
<text xml:space="preserve" text-anchor="middle" x="322" y="-62.42" font-family="Arial" font-size="11.00" fill="#fff2c6">SAFETY GATE</text>
</g>
<!-- N2&#45;&gt;GATE -->
<!-- N4 -->
<g id="node4" class="node">
<title>N4</title>
<path fill="#0b3048" stroke="#27c7f7" stroke-width="2" d="M820.05,-430.2C820.05,-430.2 665.95,-430.2 665.95,-430.2 659.95,-430.2 653.95,-424.2 653.95,-418.2 653.95,-418.2 653.95,-361.56 653.95,-361.56 653.95,-355.56 659.95,-349.56 665.95,-349.56 665.95,-349.56 820.05,-349.56 820.05,-349.56 826.05,-349.56 832.05,-355.56 832.05,-361.56 832.05,-361.56 832.05,-418.2 832.05,-418.2 832.05,-424.2 826.05,-430.2 820.05,-430.2"/>
<text xml:space="preserve" text-anchor="middle" x="743" y="-403.38" font-family="Arial" font-size="15.00" fill="#f5fbff">04</text>
<text xml:space="preserve" text-anchor="middle" x="743" y="-385.38" font-family="Arial" font-size="15.00" fill="#f5fbff">CandidateDesign</text>
<text xml:space="preserve" text-anchor="middle" x="743" y="-367.38" font-family="Arial" font-size="15.00" fill="#f5fbff">Strict Pydantic Schema</text>
</g>
<!-- N3&#45;&gt;N4 -->
<g id="edge3" class="edge">
<title>N3&#45;&gt;N4</title>
<path fill="none" stroke="#d9eeff" stroke-width="2" d="M628.24,-390C628.24,-390 642.22,-390 642.22,-390"/>
<polygon fill="#d9eeff" stroke="#d9eeff" stroke-width="2" points="642.22,-392.73 650.02,-390 642.22,-387.27 642.22,-392.73"/>
</g>
<!-- N9 -->
<g id="node10" class="node">
<title>N9</title>
<path fill="#124436" stroke="#64dea4" stroke-width="2" d="M620.51,-112.64C620.51,-112.64 443.49,-112.64 443.49,-112.64 437.49,-112.64 431.49,-106.64 431.49,-100.64 431.49,-100.64 431.49,-44 431.49,-44 431.49,-38 437.49,-32 443.49,-32 443.49,-32 620.51,-32 620.51,-32 626.51,-32 632.51,-38 632.51,-44 632.51,-44 632.51,-100.64 632.51,-100.64 632.51,-106.64 626.51,-112.64 620.51,-112.64"/>
<text xml:space="preserve" text-anchor="middle" x="532" y="-85.82" font-family="Arial" font-size="15.00" fill="#f5fbff">09</text>
<text xml:space="preserve" text-anchor="middle" x="532" y="-67.82" font-family="Arial" font-size="15.00" fill="#f5fbff">LEAN Smoke Test</text>
<text xml:space="preserve" text-anchor="middle" x="532" y="-49.82" font-family="Arial" font-size="15.00" fill="#f5fbff">Compile + minimal runtime</text>
</g>
<!-- N3&#45;&gt;N9 -->
<!-- N5 -->
<g id="node5" class="node">
<title>N5</title>
<path fill="#0b3048" stroke="#27c7f7" stroke-width="2" d="M1034.45,-430.2C1034.45,-430.2 871.55,-430.2 871.55,-430.2 865.55,-430.2 859.55,-424.2 859.55,-418.2 859.55,-418.2 859.55,-361.56 859.55,-361.56 859.55,-355.56 865.55,-349.56 871.55,-349.56 871.55,-349.56 1034.45,-349.56 1034.45,-349.56 1040.45,-349.56 1046.45,-355.56 1046.45,-361.56 1046.45,-361.56 1046.45,-418.2 1046.45,-418.2 1046.45,-424.2 1040.45,-430.2 1034.45,-430.2"/>
<text xml:space="preserve" text-anchor="middle" x="953" y="-403.38" font-family="Arial" font-size="15.00" fill="#f5fbff">05</text>
<text xml:space="preserve" text-anchor="middle" x="953" y="-385.38" font-family="Arial" font-size="15.00" fill="#f5fbff">SpecBuilder + Validation</text>
<text xml:space="preserve" text-anchor="middle" x="953" y="-367.38" font-family="Arial" font-size="15.00" fill="#f5fbff">Immutable fields + diff</text>
</g>
<!-- N4&#45;&gt;N5 -->
<g id="edge4" class="edge">
<title>N4&#45;&gt;N5</title>
<path fill="none" stroke="#d9eeff" stroke-width="2" d="M832.97,-390C832.97,-390 848.04,-390 848.04,-390"/>
<polygon fill="#d9eeff" stroke="#d9eeff" stroke-width="2" points="848.04,-392.73 855.84,-390 848.04,-387.27 848.04,-392.73"/>
</g>
<!-- N10 -->
<g id="node11" class="node">
<title>N10</title>
<path fill="#124436" stroke="#64dea4" stroke-width="2" d="M800.87,-112.64C800.87,-112.64 685.13,-112.64 685.13,-112.64 679.13,-112.64 673.13,-106.64 673.13,-100.64 673.13,-100.64 673.13,-44 673.13,-44 673.13,-38 679.13,-32 685.13,-32 685.13,-32 800.87,-32 800.87,-32 806.87,-32 812.87,-38 812.87,-44 812.87,-44 812.87,-100.64 812.87,-100.64 812.87,-106.64 806.87,-112.64 800.87,-112.64"/>
<text xml:space="preserve" text-anchor="middle" x="743" y="-85.82" font-family="Arial" font-size="15.00" fill="#f5fbff">10</text>
<text xml:space="preserve" text-anchor="middle" x="743" y="-67.82" font-family="Arial" font-size="15.00" fill="#f5fbff">Full Backtest</text>
<text xml:space="preserve" text-anchor="middle" x="743" y="-49.82" font-family="Arial" font-size="15.00" fill="#f5fbff">Normalized result</text>
</g>
<!-- N4&#45;&gt;N10 -->
<!-- N6 -->
<g id="node6" class="node">
<title>N6</title>
<path fill="#30245c" stroke="#a98aff" stroke-width="2" d="M1259.03,-430.2C1259.03,-430.2 1096.97,-430.2 1096.97,-430.2 1090.97,-430.2 1084.97,-424.2 1084.97,-418.2 1084.97,-418.2 1084.97,-361.56 1084.97,-361.56 1084.97,-355.56 1090.97,-349.56 1096.97,-349.56 1096.97,-349.56 1259.03,-349.56 1259.03,-349.56 1265.03,-349.56 1271.03,-355.56 1271.03,-361.56 1271.03,-361.56 1271.03,-418.2 1271.03,-418.2 1271.03,-424.2 1265.03,-430.2 1259.03,-430.2"/>
<text xml:space="preserve" text-anchor="middle" x="1178" y="-403.38" font-family="Arial" font-size="15.00" fill="#f5fbff">06</text>
<text xml:space="preserve" text-anchor="middle" x="1178" y="-385.38" font-family="Arial" font-size="15.00" fill="#f5fbff">QC Code Agent</text>
<text xml:space="preserve" text-anchor="middle" x="1178" y="-367.38" font-family="Arial" font-size="15.00" fill="#f5fbff">main.py + bound digests</text>
</g>
<!-- N5&#45;&gt;N6 -->
<g id="edge5" class="edge">
<title>N5&#45;&gt;N6</title>
<path fill="none" stroke="#d9eeff" stroke-width="2" d="M1047.44,-390C1047.44,-390 1073.33,-390 1073.33,-390"/>
<polygon fill="#d9eeff" stroke="#d9eeff" stroke-width="2" points="1073.33,-392.73 1081.13,-390 1073.33,-387.27 1073.33,-392.73"/>
</g>
<!-- N11 -->
<g id="node12" class="node">
<title>N11</title>
<path fill="#30245c" stroke="#a98aff" stroke-width="2" d="M1054.23,-112.64C1054.23,-112.64 851.77,-112.64 851.77,-112.64 845.77,-112.64 839.77,-106.64 839.77,-100.64 839.77,-100.64 839.77,-44 839.77,-44 839.77,-38 845.77,-32 851.77,-32 851.77,-32 1054.23,-32 1054.23,-32 1060.23,-32 1066.23,-38 1066.23,-44 1066.23,-44 1066.23,-100.64 1066.23,-100.64 1066.23,-106.64 1060.23,-112.64 1054.23,-112.64"/>
<text xml:space="preserve" text-anchor="middle" x="953" y="-85.82" font-family="Arial" font-size="15.00" fill="#f5fbff">11</text>
<text xml:space="preserve" text-anchor="middle" x="953" y="-67.82" font-family="Arial" font-size="15.00" fill="#f5fbff">Unified Post&#45;Backtest Analysis</text>
<text xml:space="preserve" text-anchor="middle" x="953" y="-49.82" font-family="Arial" font-size="15.00" fill="#f5fbff">ONE CALL · all routes</text>
</g>
<!-- N5&#45;&gt;N11 -->
<!-- N7 -->
<g id="node7" class="node">
<title>N7</title>
<path fill="#453316" stroke="#ffc857" stroke-width="2" d="M1767.8,-430.2C1767.8,-430.2 1606.2,-430.2 1606.2,-430.2 1600.2,-430.2 1594.2,-424.2 1594.2,-418.2 1594.2,-418.2 1594.2,-361.56 1594.2,-361.56 1594.2,-355.56 1600.2,-349.56 1606.2,-349.56 1606.2,-349.56 1767.8,-349.56 1767.8,-349.56 1773.8,-349.56 1779.8,-355.56 1779.8,-361.56 1779.8,-361.56 1779.8,-418.2 1779.8,-418.2 1779.8,-424.2 1773.8,-430.2 1767.8,-430.2"/>
<text xml:space="preserve" text-anchor="middle" x="1687" y="-403.38" font-family="Arial" font-size="15.00" fill="#f5fbff">07</text>
<text xml:space="preserve" text-anchor="middle" x="1687" y="-385.38" font-family="Arial" font-size="15.00" fill="#f5fbff">Static Code Validation</text>
<text xml:space="preserve" text-anchor="middle" x="1687" y="-367.38" font-family="Arial" font-size="15.00" fill="#f5fbff">AST · allowlist · digests</text>
</g>
<!-- N6&#45;&gt;N7 -->
<g id="edge6" class="edge">
<title>N6&#45;&gt;N7</title>
<path fill="none" stroke="#d9eeff" stroke-width="2" d="M1271.95,-390C1271.95,-390 1582.77,-390 1582.77,-390"/>
<polygon fill="#d9eeff" stroke="#d9eeff" stroke-width="2" points="1582.77,-392.73 1590.57,-390 1582.77,-387.27 1582.77,-392.73"/>
</g>
<!-- N12 -->
<g id="node13" class="node">
<title>N12</title>
<path fill="#0b3048" stroke="#27c7f7" stroke-width="2" d="M1250.46,-112.64C1250.46,-112.64 1105.54,-112.64 1105.54,-112.64 1099.54,-112.64 1093.54,-106.64 1093.54,-100.64 1093.54,-100.64 1093.54,-44 1093.54,-44 1093.54,-38 1099.54,-32 1105.54,-32 1105.54,-32 1250.46,-32 1250.46,-32 1256.46,-32 1262.46,-38 1262.46,-44 1262.46,-44 1262.46,-100.64 1262.46,-100.64 1262.46,-106.64 1256.46,-112.64 1250.46,-112.64"/>
<text xml:space="preserve" text-anchor="middle" x="1178" y="-85.82" font-family="Arial" font-size="15.00" fill="#f5fbff">12</text>
<text xml:space="preserve" text-anchor="middle" x="1178" y="-67.82" font-family="Arial" font-size="15.00" fill="#f5fbff">Deterministic Selector</text>
<text xml:space="preserve" text-anchor="middle" x="1178" y="-49.82" font-family="Arial" font-size="15.00" fill="#f5fbff">Hard eligibility rules</text>
</g>
<!-- N6&#45;&gt;N12 -->
<!-- N7&#45;&gt;N8 -->
<g id="edge20" class="edge">
<title>N7:s&#45;&gt;N8:n</title>
<path fill="none" stroke="#d9eeff" stroke-width="2.4" d="M121,-325.56C121,-310.56 121,-229.7 121,-175.08"/>
<polygon fill="#d9eeff" stroke="#d9eeff" stroke-width="2.4" points="123.73,-175.27 121,-167.47 118.27,-175.27 123.73,-175.27"/>
</g>
<!-- N13 -->
<g id="node14" class="node">
<title>N13</title>
<path fill="#0b3048" stroke="#27c7f7" stroke-width="2" d="M1756.35,-112.64C1756.35,-112.64 1617.65,-112.64 1617.65,-112.64 1611.65,-112.64 1605.65,-106.64 1605.65,-100.64 1605.65,-100.64 1605.65,-44 1605.65,-44 1605.65,-38 1611.65,-32 1617.65,-32 1617.65,-32 1756.35,-32 1756.35,-32 1762.35,-32 1768.35,-38 1768.35,-44 1768.35,-44 1768.35,-100.64 1768.35,-100.64 1768.35,-106.64 1762.35,-112.64 1756.35,-112.64"/>
<text xml:space="preserve" text-anchor="middle" x="1687" y="-85.82" font-family="Arial" font-size="15.00" fill="#f5fbff">13</text>
<text xml:space="preserve" text-anchor="middle" x="1687" y="-67.82" font-family="Arial" font-size="15.00" fill="#f5fbff">OptimizationResult</text>
<text xml:space="preserve" text-anchor="middle" x="1687" y="-49.82" font-family="Arial" font-size="15.00" fill="#f5fbff">Selection + audit trail</text>
</g>
<!-- N7&#45;&gt;N13 -->
<!-- REPAIR -->
<g id="node15" class="node">
<title>REPAIR</title>
<path fill="#342a27" stroke="#ffc857" stroke-width="2.8" d="M1633.78,-306.56C1633.78,-306.56 1286.22,-306.56 1286.22,-306.56 1280.22,-306.56 1274.22,-300.56 1274.22,-294.56 1274.22,-294.56 1274.22,-227.84 1274.22,-227.84 1274.22,-221.84 1280.22,-215.84 1286.22,-215.84 1286.22,-215.84 1633.78,-215.84 1633.78,-215.84 1639.78,-215.84 1645.78,-221.84 1645.78,-227.84 1645.78,-227.84 1645.78,-294.56 1645.78,-294.56 1645.78,-300.56 1639.78,-306.56 1633.78,-306.56"/>
<text xml:space="preserve" text-anchor="middle" x="1460" y="-283.7" font-family="Arial" font-size="15.00" fill="#fff2c6">Repair Agent</text>
<text xml:space="preserve" text-anchor="middle" x="1460" y="-265.7" font-family="Arial" font-size="15.00" fill="#fff2c6">Triggers: static · risk · smoke</text>
<text xml:space="preserve" text-anchor="middle" x="1460" y="-247.7" font-family="Arial" font-size="15.00" fill="#fff2c6">Implementation fixes only · immutable spec_sha256</text>
<text xml:space="preserve" text-anchor="middle" x="1460" y="-229.7" font-family="Arial" font-size="15.00" fill="#fff2c6">Return: Static Code Validation</text>
</g>
<!-- N7&#45;&gt;REPAIR -->
<g id="edge21" class="edge">
<title>N7:sw&#45;&gt;REPAIR:nw</title>
<path fill="none" stroke="#ffc857" stroke-width="2" stroke-dasharray="5,2" d="M1632.88,-349.56C1632.88,-349.56 1632.88,-317.39 1632.88,-317.39"/>
<polygon fill="#ffc857" stroke="#ffc857" stroke-width="2" points="1635.61,-317.39 1632.88,-309.59 1630.15,-317.39 1635.61,-317.39"/>
</g>
<!-- N8&#45;&gt;GATE -->
<g id="edge7" class="edge">
<title>N8&#45;&gt;GATE</title>
<path fill="none" stroke="#ffc857" stroke-width="2.5" d="M191.87,-72C191.87,-72 226.08,-72 226.08,-72"/>
<polygon fill="#ffc857" stroke="#ffc857" stroke-width="2.5" points="226.08,-74.73 233.88,-72 226.08,-69.27 226.08,-74.73"/>
</g>
<!-- N8&#45;&gt;REPAIR -->
<g id="edge22" class="edge">
<title>N8:n&#45;&gt;REPAIR:w</title>
<path fill="none" stroke="#ffc857" stroke-width="2" stroke-dasharray="5,2" d="M155.94,-112.64C155.94,-112.64 155.94,-276 155.94,-276 155.94,-276 1263.4,-276 1263.4,-276"/>
<polygon fill="#ffc857" stroke="#ffc857" stroke-width="2" points="1263.4,-278.73 1271.2,-276 1263.4,-273.27 1263.4,-278.73"/>
</g>
<!-- GATE&#45;&gt;N9 -->
<g id="edge8" class="edge">
<title>GATE&#45;&gt;N9</title>
<path fill="none" stroke="#ffc857" stroke-width="2.5" d="M406.51,-72C406.51,-72 419.16,-72 419.16,-72"/>
<polygon fill="#ffc857" stroke="#ffc857" stroke-width="2.5" points="419.16,-74.73 426.96,-72 419.16,-69.27 419.16,-74.73"/>
</g>
<!-- N9&#45;&gt;N10 -->
<g id="edge9" class="edge">
<title>N9&#45;&gt;N10</title>
<path fill="none" stroke="#d9eeff" stroke-width="2" d="M633.48,-72C633.48,-72 661.37,-72 661.37,-72"/>
<polygon fill="#d9eeff" stroke="#d9eeff" stroke-width="2" points="661.37,-74.73 669.17,-72 661.37,-69.27 661.37,-74.73"/>
</g>
<!-- N9&#45;&gt;REPAIR -->
<g id="edge23" class="edge">
<title>N9:n&#45;&gt;REPAIR:w</title>
<path fill="none" stroke="#ffc857" stroke-width="2" stroke-dasharray="5,2" d="M563.77,-112.64C563.77,-112.64 563.77,-246 563.77,-246 563.77,-246 1263.4,-246 1263.4,-246"/>
<polygon fill="#ffc857" stroke="#ffc857" stroke-width="2" points="1263.4,-248.73 1271.2,-246 1263.4,-243.27 1263.4,-248.73"/>
</g>
<!-- N10&#45;&gt;N11 -->
<g id="edge10" class="edge">
<title>N10&#45;&gt;N11</title>
<path fill="none" stroke="#d9eeff" stroke-width="2" d="M813.8,-72C813.8,-72 827.96,-72 827.96,-72"/>
<polygon fill="#d9eeff" stroke="#d9eeff" stroke-width="2" points="827.96,-74.73 835.76,-72 827.96,-69.27 827.96,-74.73"/>
</g>
<!-- N11&#45;&gt;N12 -->
<g id="edge11" class="edge">
<title>N11&#45;&gt;N12</title>
<path fill="none" stroke="#d9eeff" stroke-width="2" d="M1067.15,-72C1067.15,-72 1081.86,-72 1081.86,-72"/>
<polygon fill="#d9eeff" stroke="#d9eeff" stroke-width="2" points="1081.86,-74.73 1089.66,-72 1081.86,-69.27 1081.86,-74.73"/>
</g>
<!-- N12&#45;&gt;N13 -->
<g id="edge12" class="edge">
<title>N12&#45;&gt;N13</title>
<path fill="none" stroke="#d9eeff" stroke-width="2" d="M1263.2,-72C1263.2,-72 1594.08,-72 1594.08,-72"/>
<polygon fill="#d9eeff" stroke="#d9eeff" stroke-width="2" points="1594.08,-74.73 1601.88,-72 1594.08,-69.27 1594.08,-74.73"/>
</g>
<!-- REPAIR&#45;&gt;N7 -->
<g id="edge24" class="edge">
<title>REPAIR:ne&#45;&gt;N7:se</title>
<path fill="none" stroke="#ffc857" stroke-width="3" d="M1619.99,-306.56C1619.99,-306.56 1619.99,-337.22 1619.99,-337.22"/>
<polygon fill="#ffc857" stroke="#ffc857" stroke-width="3" points="1617.26,-337.22 1619.99,-345.02 1622.72,-337.22 1617.26,-337.22"/>
</g>
</g>
</svg>
